#!OML:ASF E:\emotionWalksFemale\Project 1\Capture day 1\Session 1\Female1.ASF
:FULLY-SPECIFIED
:DEGREES
2194
root 8.96996 15.1742 -16.2868 362.575 -10.4503 -366.434
lowerback 7.80549 3.32977 6.17466
upperback -3.98207 5.20981 0.525699
thorax -8.11081 2.22106 -3.64033
lowerneck -1.66982 -8.14145 -10.6019
upperneck 1.70375 -10.7314 5.64952
head 1.81413 -5.37404 3.40171
rclavicle 2.43138e-014 1.03368e-014
rhumerus -22.0994 8.69217 -85.9416
rradius 40.91
rwrist 17.0844
rhand -8.35801 -50.2532
rfingers 7.12502
rthumb 17.5643 280.52
lclavicle 2.43138e-014 1.03368e-014
lhumerus -57.7484 8.40699 67.1857
lradius 37.733
lwrist -9.45869
lhand -2.22153 -34.1898
lfingers 7.12502
lthumb 23.4609 -5.60024
rfemur 20.0271 9.78443 37.1668
rtibia 0
rfoot -11.1702 -14.4652
rtoes -3.64261
lfemur -37.6305 -34.5433 3.0377
ltibia 23.525
lfoot -32.5995 33.6115
ltoes -7.47851
2195
root 8.97858 15.1623 -16.1405 362.565 -10.8435 -366.408
lowerback 7.49213 3.43605 6.19015
upperback -3.96583 5.32472 0.47672
thorax -7.89263 2.28529 -3.68934
lowerneck -1.44606 -8.06955 -10.5998
upperneck 1.55595 -10.6598 5.76557
head 1.72653 -5.33805 3.45731
rclavicle -4.63417e-014 -1.78906e-014
rhumerus -22.1659 8.66927 -86.1317
rradius 40.832
rwrist 16.9815
rhand -8.62834 -50.0851
rfingers 7.12502
rthumb 17.3042 280.665
lclavicle -4.63417e-014 -1.78906e-014
lhumerus -57.6175 8.82845 66.6255
lradius 37.0551
lwrist -10.7034
lhand -2.06289 -34.7759
lfingers 7.12502
lthumb 23.6131 -6.20583
rfemur 20.6225 9.61308 36.9057
rtibia 5.725e-014
rfoot -10.9603 -13.9237
rtoes -3.31114
lfemur -36.432 -32.1447 1.28898
ltibia 23.4623
lfoot -29.8936 32.4338
ltoes -10.9691
2196
root 8.98726 15.1484 -15.9895 362.458 -11.2238 -366.428
lowerback 7.22539 3.5054 6.26635
upperback -3.9233 5.3999 0.441318
thorax -7.67375 2.3278 -3.75411
lowerneck -1.33417 -8.13183 -10.608
upperneck 1.68269 -10.7605 5.84139
head 1.76342 -5.39147 3.48227
rclavicle 4.22417e-016 -1.11319e-014
rhumerus -22.3665 8.73811 -86.3557
rradius 40.8586
rwrist 16.8683
rhand -8.94187 -49.9005
rfingers 7.12502
rthumb 17.0024 280.824
lclavicle 4.22417e-016 -1.11319e-014
lhumerus -57.644 9.15061 66.1336
lradius 36.671
lwrist -11.6414
lhand -1.75721 -35.3335
lfingers 7.12502
lthumb 23.9062 -6.80155
rfemur 21.3286 9.40436 36.7012
rtibia -2.54444e-014
rfoot -10.6538 -13.4054
rtoes -3.71275
lfemur -35.1392 -29.4696 -0.600616
ltibia 23.5872
lfoot -26.7611 31.0191
ltoes -16.8376
2197
root 8.99246 15.1431 -15.8498 362.323 -11.4293 -366.364
lowerback 7.3374 3.4701 6.17021
upperback -3.97963 5.35194 0.414777
thorax -7.81021 2.30142 -3.73508
lowerneck -1.71539 -8.1947 -10.4077
upperneck 2.14139 -10.8101 5.53864
head 1.95378 -5.4194 3.31458
rclavicle -3.37437e-014 -2.50469e-014
rhumerus -22.5776 8.70565 -86.5896
rradius 40.7654
rwrist 17.0112
rhand -8.88332 -49.6876
rfingers 7.12502
rthumb 17.0588 281.041
lclavicle -3.37437e-014 -2.50469e-014
lhumerus -57.7642 9.44518 65.6792
lradius 36.3593
lwrist -12.4081
lhand -1.82573 -35.55
lfingers 7.12502
lthumb 23.8405 -7.0094
rfemur 21.9848 9.02389 36.4173
rtibia 1.90833e-014
rfoot -10.3628 -12.8401
rtoes -3.56988
lfemur -34.0852 -27.2805 -2.24467
ltibia 23.8341
lfoot -23.9516 29.5222
ltoes -21.5085
2198
root 9.00372 15.1549 -15.6792 362.087 -12.0469 -366.18
lowerback 7.21075 3.57146 6.05043
upperback -3.95621 5.46175 0.388087
thorax -7.70696 2.36586 -3.69864
lowerneck -2.11799 -8.20744 -10.3703
upperneck 2.60955 -10.7865 5.28335
head 2.16009 -5.41237 3.19648
rclavicle -2.36305e-014 -1.19271e-015
rhumerus -22.8538 8.52654 -86.7026
rradius 40.595
rwrist 17.4499
rhand -8.70975 -49.7379
rfingers 7.12502
rthumb 17.2258 281.006
lclavicle -2.36305e-014 -1.19271e-015
lhumerus -57.8741 9.82121 65.2696
lradius 35.9889
lwrist -13.1741
lhand -2.02551 -35.5903
lfingers 7.12502
lthumb 23.6489 -7.02487
rfemur 22.844 9.03665 35.956
rtibia -3.18055e-015
rfoot -9.95352 -12.2666
rtoes -3.58746
lfemur -32.8323 -26.02 -3.64567
ltibia 24.1527
lfoot -22.6046 28.4333
ltoes -22.0989
2199
root 9.01195 15.1609 -15.5152 361.99 -12.4594 -366.041
lowerback 7.0303 3.6359 5.89657
upperback -4.0617 5.5236 0.391796
thorax -7.72328 2.4021 -3.60738
lowerneck -2.05176 -8.08067 -10.6561
upperneck 2.80143 -10.6283 5.50789
head 2.23497 -5.33782 3.33363
rclavicle 1.84373e-014 3.97569e-015
rhumerus -23.3676 8.37055 -86.7563
rradius 40.5715
rwrist 17.8049
rhand -8.2316 -50.2603
rfingers 7.12502
rthumb 17.686 280.524
lclavicle 1.84373e-014 3.97569e-015
lhumerus -58.1076 10.0597 64.9632
lradius 35.7666
lwrist -13.7503
lhand -2.05268 -35.2516
lfingers 7.12502
lthumb 23.6229 -6.68279
rfemur 23.5185 8.89196 35.5313
rtibia 4.13472e-014
rfoot -9.29298 -11.7245
rtoes -4.43784
lfemur -32.0309 -25.2169 -4.60194
ltibia 24.479
lfoot -21.4162 27.3979
ltoes -21.222
2200
root 9.01709 15.1686 -15.3515 361.943 -12.9489 -365.882
lowerback 6.63969 3.75098 5.72486
upperback -4.11164 5.62931 0.329351
thorax -7.54807 2.46844 -3.56008
lowerneck -1.65759 -7.95398 -10.7979
upperneck 2.5857 -10.5065 5.84842
head 2.11393 -5.27655 3.50362
rclavicle -5.13113e-014 -8.74653e-015
rhumerus -23.778 8.283 -86.889
rradius 40.5466
rwrist 17.8775
rhand -7.66068 -50.8146
rfingers 7.12502
rthumb 18.2353 280.02
lclavicle -5.13113e-014 -8.74653e-015
lhumerus -58.1417 10.3009 64.5894
lradius 35.5105
lwrist -14.2165
lhand -1.68588 -34.8626
lfingers 7.12502
lthumb 23.9746 -6.33958
rfemur 24.1248 8.84098 35.0738
rtibia 0
rfoot -8.49751 -11.1951
rtoes -5.79403
lfemur -31.4777 -25.0428 -5.16234
ltibia 24.791
lfoot -20.6551 26.66
ltoes -18.4661
2201
root 9.02622 15.1813 -15.1865 361.763 -13.3284 -365.62
lowerback 6.39766 3.81017 5.57056
upperback -4.0641 5.66423 0.19104
thorax -7.352 2.49918 -3.60087
lowerneck -1.80918 -8.0609 -10.576
upperneck 2.82332 -10.639 5.66906
head 2.20519 -5.34404 3.38367
rclavicle -7.50412e-015 -1.59028e-014
rhumerus -23.9631 8.08832 -87.0322
rradius 40.2503
rwrist 17.9791
rhand -7.86328 -51.0018
rfingers 7.12502
rthumb 18.0404 279.815
lclavicle -7.50412e-015 -1.59028e-014
lhumerus -58.0022 10.5507 64.2035
lradius 35.2173
lwrist -14.5903
lhand -1.27798 -34.9005
lfingers 7.12502
lthumb 24.3657 -6.42956
rfemur 24.808 8.66841 34.4919
rtibia 6.36111e-014
rfoot -7.58156 -10.6281
rtoes -7.23474
lfemur -30.7909 -24.8882 -5.90928
ltibia 24.9854
lfoot -19.7282 26.0102
ltoes -16.0042
2202
root 9.03799 15.1937 -15.025 361.523 -13.576 -365.299
lowerback 6.38466 3.81229 5.33326
upperback -4.08034 5.63656 0.0872045
thorax -7.37469 2.49383 -3.57578
lowerneck -2.09373 -8.14689 -10.4801
upperneck 3.04599 -10.7273 5.53763
head 2.3237 -5.38804 3.30052
rclavicle 6.38596e-014 1.78906e-014
rhumerus -24.3102 7.87625 -87.1161
rradius 39.9028
rwrist 18.2375
rhand -8.11178 -50.6243
rfingers 7.12502
rthumb 17.8013 280.17
lclavicle 6.38596e-014 1.78906e-014
lhumerus -57.9918 10.7801 63.8991
lradius 34.9989
lwrist -15.0128
lhand -1.12362 -35.3659
lfingers 7.12502
lthumb 24.5137 -6.91484
rfemur 25.4994 8.37276 33.8229
rtibia -6.99722e-014
rfoot -6.54147 -9.84918
rtoes -7.25409
lfemur -30.0246 -24.5927 -6.84702
ltibia 25.1073
lfoot -18.4124 25.5274
ltoes -14.8967
2203
root 9.0497 15.2121 -14.8623 361.31 -13.8241 -364.855
lowerback 6.2711 3.82461 4.95165
upperback -4.135 5.60251 -0.0367451
thorax -7.39156 2.49214 -3.48494
lowerneck -1.86369 -8.11689 -10.5244
upperneck 2.94555 -10.7121 5.63455
head 2.25666 -5.38149 3.35405
rclavicle 1.05356e-014 1.59028e-014
rhumerus -24.8426 7.73794 -87.2324
rradius 39.6244
rwrist 18.4044
rhand -8.39126 -49.6731
rfingers 7.12502
rthumb 17.5323 281.097
lclavicle 1.05356e-014 1.59028e-014
lhumerus -57.8703 11.1128 63.6094
lradius 34.6782
lwrist -15.6591
lhand -1.13743 -35.5508
lfingers 7.12502
lthumb 24.5005 -7.09803
rfemur 26.123 8.10342 32.9993
rtibia 3.49861e-014
rfoot -5.29393 -8.97747
rtoes -6.31452
lfemur -29.1898 -23.4562 -8.17815
ltibia 25.2106
lfoot -16.3612 24.5933
ltoes -15.112
2204
root 9.06199 15.2353 -14.69 361.071 -14.0743 -364.286
lowerback 5.91195 3.8541 4.53664
upperback -4.12914 5.56917 -0.222002
thorax -7.19758 2.50004 -3.41563
lowerneck -1.65617 -8.08054 -10.5896
upperneck 3.01956 -10.6902 5.7385
head 2.25387 -5.37438 3.41055
rclavicle -3.53837e-014 -1.23246e-014
rhumerus -25.3796 7.55314 -87.3779
rradius 39.4143
rwrist 18.3786
rhand -8.39487 -49.8568
rfingers 7.12502
rthumb 17.5289 280.913
lclavicle -3.53837e-014 -1.23246e-014
lhumerus -57.6892 11.316 63.4864
lradius 34.5259
lwrist -15.9553
lhand -1.02011 -34.9177
lfingers 7.12502
lthumb 24.6129 -6.48015
rfemur 23.7618 7.77453 31.9972
rtibia 5.99442
rfoot -6.86816 -8.45659
rtoes -5.70838
lfemur -28.2529 -21.4949 -9.87135
ltibia 25.27
lfoot -13.4871 23.3323
ltoes -18.5012
2205
root 9.07069 15.2628 -14.5176 360.774 -14.4405 -363.764
lowerback 5.72251 3.91306 4.14428
upperback -4.20442 5.59396 -0.381405
thorax -7.18517 2.52755 -3.35628
lowerneck -1.7874 -7.99108 -10.6897
upperneck 3.30151 -10.5654 5.8237
head 2.37493 -5.31481 3.45546
rclavicle -2.22639e-014 -1.15295e-014
rhumerus -26.0779 7.15704 -87.4795
rradius 39.1898
rwrist 18.6048
rhand -7.70902 -50.9905
rfingers 7.12502
rthumb 18.1888 279.84
lclavicle -2.22639e-014 -1.15295e-014
lhumerus -57.8474 11.2957 63.4156
lradius 34.6943
lwrist -15.9261
lhand -0.773844 -34.4684
lfingers 7.12502
lthumb 24.849 -6.06318
rfemur 22.1522 7.55641 31.0545
rtibia 10.5191
rfoot -7.38652 -7.88127
rtoes -6.53781
lfemur -27.2062 -19.8544 -11.3523
ltibia 25.2275
lfoot -10.6546 22.7161
ltoes -21.3849
2206
root 9.07998 15.2917 -14.3534 360.429 -14.6978 -363.28
lowerback 3.71821 4.04505 3.43831
upperback -3.07344 5.60785 -0.14907
thorax -4.92221 2.65669 -2.49887
lowerneck -2.23053 -8.17283 -11.0116
upperneck 2.76193 -10.7287 5.73278
head 2.30479 -5.3853 3.46328
rclavicle -4.01048e-014 -1.59028e-015
rhumerus -24.9849 6.95259 -86.6282
rradius 38.6681
rwrist 18.8801
rhand -7.52558 -51.221
rfingers 7.12502
rthumb 18.3653 279.626
lclavicle -4.01048e-014 -1.59028e-015
lhumerus -56.3606 12.6259 63.9948
lradius 34.4256
lwrist -16.4875
lhand -0.760568 -34.5065
lfingers 7.12502
lthumb 24.8617 -6.1031
rfemur 20.8987 7.06667 30.0687
rtibia 14.2374
rfoot -7.10067 -7.11906
rtoes -7.94676
lfemur -26.176 -19.0521 -12.547
ltibia 25.0873
lfoot -8.6471 22.6995
ltoes -23.3235
2207
root 9.0954 15.3163 -14.1928 360.155 -14.5673 -362.773
lowerback 5.71138 3.87244 3.49491
upperback -4.39259 5.46293 -0.701476
thorax -7.41671 2.47754 -3.32844
lowerneck -2.22099 -8.12621 -10.6299
upperneck 4.40987 -10.7095 5.39224
head 2.80911 -5.40481 3.25289
rclavicle 3.13583e-014 1.23246e-014
rhumerus -27.5492 6.1687 -87.4173
rradius 38.3842
rwrist 19.1466
rhand -8.2792 -50.5688
rfingers 7.12502
rthumb 17.6402 280.211
lclavicle 3.13583e-014 1.23246e-014
lhumerus -57.7403 11.3971 63.2408
lradius 34.5537
lwrist -16.4005
lhand -0.936792 -34.5881
lfingers 7.12502
lthumb 24.6928 -6.16148
rfemur 19.6365 6.31335 29.0402
rtibia 17.6953
rfoot -6.43597 -6.24693
rtoes -6.73557
lfemur -25.3428 -18.6276 -13.7073
ltibia 24.8807
lfoot -6.88762 22.6097
ltoes -27.0782
2208
root 9.11329 15.3404 -14.0324 359.883 -14.3663 -362.332
lowerback 3.24229 3.86042 3.13703
upperback -3.01043 5.30462 -0.587455
thorax -4.58945 2.51871 -2.72276
lowerneck -2.46633 -8.19531 -10.9324
upperneck 3.31424 -10.7467 5.65678
head 2.52573 -5.40045 3.40302
rclavicle -4.15211e-014 -1.55052e-014
rhumerus -25.9996 5.90849 -86.6173
rradius 37.6087
rwrist 19.1214
rhand -8.50354 -50.3183
rfingers 7.12502
rthumb 17.4243 280.443
lclavicle -4.15211e-014 -1.55052e-014
lhumerus -55.6084 12.8309 63.9204
lradius 34.127
lwrist -17.1499
lhand -0.998619 -34.5072
lfingers 7.12502
lthumb 24.6335 -6.07247
rfemur 18.3673 5.4538 28.0135
rtibia 21.0952
rfoot -5.5123 -5.07938
rtoes -3.99313
lfemur -24.4443 -18.1447 -14.8454
ltibia 24.5923
lfoot -5.41931 22.1688
ltoes -30.8211
